<svg height="50" viewBox="0 0 50 50" width="50" xmlns="http://www.w3.org/2000/svg"><path d="m30.192009 24.6443454c0-3.0555491-2.4921145-5.5476637-5.5476636-5.5476637s-5.5476637 2.4921146-5.5476637 5.5476637 2.4921146 5.5476636 5.5476637 5.5476636 5.5476636-2.4921145 5.5476636-5.5476636zm2.9905375 0c0 4.7241823-3.8140188 8.5382011-8.5382011 8.5382011-4.7241824 0-8.5382011-3.8140188-8.5382011-8.5382011 0-4.7241824 3.8140187-8.5382011 8.5382011-8.5382011 4.7241823 0 8.5382011 3.8140187 8.5382011 8.5382011zm2.3404206-8.8849301c0 1.1051986-.888493 1.9936916-1.9936917 1.9936916-1.1051986 0-1.9936916-.888493-1.9936916-1.9936916s.888493-1.9936916 1.9936916-1.9936916c1.1051987 0 1.9936917.888493 1.9936917 1.9936916zm-10.8786217-4.7675235c-2.4271029 0-7.6280376-.195035-9.8167642.6717874-.7584697.3033879-1.3219043.6717874-1.9070094 1.2568926-.5851052.5851051-.9535047 1.1485397-1.2568926 1.9070094-.8668224 2.1887266-.6717874 7.3896613-.6717874 9.8167642 0 2.4271028-.195035 7.6280375.6717874 9.8167642.3033879.7584696.6717874 1.3219042 1.2568926 1.9070094.5851051.5851051 1.1485397.9535046 1.9070094 1.2568925 2.1887266.8668224 7.3896613.6717874 9.8167642.6717874 2.4271028 0 7.6280375.195035 9.8167642-.6717874.7584696-.3033879 1.3219042-.6717874 1.9070094-1.2568925.5851051-.5851052.9535046-1.1485398 1.2568925-1.9070094.8668224-2.1887267.6717874-7.3896614.6717874-9.8167642 0-2.4271029.195035-7.6280376-.6717874-9.8167642-.3033879-.7584697-.6717874-1.3219043-1.2568925-1.9070094-.5851052-.5851052-1.1485398-.9535047-1.9070094-1.2568926-2.1887267-.8668224-7.3896614-.6717874-9.8167642-.6717874zm16.6429909 13.6524536c0 2.2970795.0216706 4.5724884-.1083528 6.8695679-.1300233 2.665479-.736799 5.0275701-2.6871496 6.9779206-1.9503505 1.9503506-4.3124416 2.5571263-6.9779206 2.6871496-2.2970795.1300234-4.5724884.1083528-6.8695679.1083528s-4.5724884.0216706-6.8695679-.1083528c-2.665479-.1300233-5.0275702-.736799-6.9779207-2.6871496-1.95035051-1.9503505-2.55712622-4.3124416-2.68714958-6.9779206-.13002337-2.2970795-.10835281-4.5724884-.10835281-6.8695679s-.02167056-4.5724884.10835281-6.8695679c.13002336-2.665479.73679907-5.0275702 2.68714958-6.9779207 1.9503505-1.95035051 4.3124417-2.55712622 6.9779207-2.68714958 2.2970795-.13002337 4.5724884-.10835281 6.8695679-.10835281s4.5724884-.02167056 6.8695679.10835281c2.665479.13002336 5.0275701.73679907 6.9779206 2.68714958 1.9503506 1.9503505 2.5571263 4.3124417 2.6871496 6.9779207.1300234 2.2970795.1083528 4.5724884.1083528 6.8695679z" fill="#364e61" fill-rule="evenodd"/></svg>
