<?xml version="1.0" encoding="UTF-8"?>
<svg width="20px" height="20px" viewBox="0 0 50 28" version="1.1" xmlns="http://www.w3.org/2000/svg" xmlns:xlink="http://www.w3.org/1999/xlink">
    <!-- Generator: Sketch 50 (54983) - http://www.bohemiancoding.com/sketch -->
    <title>youtube</title>
    <desc>Created with Sketch.</desc>
    <defs></defs>
    <g id="Home-page" stroke="none" stroke-width="1" fill="none" fill-rule="evenodd">
        <g id="2018-03-28__home__desktop" transform="translate(-941.000000, -6302.000000)" fill="#364E61">
            <g id="Group-16-Copy-3" transform="translate(667.000000, 6299.526789)">
                <path d="M291.528851,25.0260334 L291.528851,11.9739666 L303.000345,18.5002494 L291.528851,25.0260334 Z M317.045943,7.86717162 C316.541198,5.96639487 315.053893,4.46961424 313.165586,3.96162654 C309.742841,3.03842062 296.017697,3.03842062 296.017697,3.03842062 C296.017697,3.03842062 282.292552,3.03842062 278.869808,3.96162654 C276.9815,4.46961424 275.494196,5.96639487 274.98945,7.86717162 C274.072229,11.3121113 274.072229,18.5 274.072229,18.5 C274.072229,18.5 274.072229,25.6876394 274.98945,29.1328284 C275.494196,31.0336051 276.9815,32.5303858 278.869808,33.0386228 C282.292552,33.9615794 296.017697,33.9615794 296.017697,33.9615794 C296.017697,33.9615794 309.742841,33.9615794 313.165586,33.0386228 C315.053893,32.5303858 316.541198,31.0336051 317.045943,29.1328284 C317.963164,25.6876394 317.963164,18.5 317.963164,18.5 C317.963164,18.5 317.963164,11.3121113 317.045943,7.86717162 Z" id="youtube"></path>
            </g>
        </g>
    </g>
</svg>
